<?xml version="1.0" standalone="no"?>
<!DOCTYPE svg PUBLIC "-//W3C//DTD SVG 20010904//EN"
 "http://www.w3.org/TR/2001/REC-SVG-20010904/DTD/svg10.dtd">
<svg version="1.0" xmlns="http://www.w3.org/2000/svg"
 width="235.500000pt" height="239.211965pt" viewBox="0 0 235.500000 239.211965"
 preserveAspectRatio="xMidYMid meet">
<metadata>
Created by potrace 1.12, written by Peter Selinger 2001-2015
</metadata>
<g transform="translate(-128.000000,362.211965) scale(0.100000,-0.100000)"
fill="#000000" stroke="none">
<path d="M1280 2431 l0 -1191 343 0 c188 0 379 3 425 7 l82 6 0 43 0 44 -375
0 -375 0 0 531 0 531 368 -5 c202 -3 385 -9 407 -14 l40 -8 3 -573 2 -572 50
0 50 0 0 555 c0 400 3 555 11 555 26 0 134 -67 183 -115 95 -91 136 -200 136
-365 0 -170 -32 -262 -126 -360 -51 -54 -54 -60 -54 -109 l0 -52 40 22 c60 34
143 121 178 186 39 74 52 124 66 245 l11 98 135 -197 c216 -316 278 -385 386
-435 67 -31 246 -33 312 -4 23 10 42 22 42 26 0 23 -24 70 -34 66 -152 -65
-290 -36 -400 85 -29 33 -175 236 -322 452 -257 375 -347 489 -432 547 -21 15
-6 30 523 535 300 286 575 548 612 582 l68 63 -70 0 -70 0 -400 -384 c-220
-212 -401 -383 -402 -382 -2 1 2 18 7 37 15 52 12 227 -5 294 -9 33 -28 84
-43 114 -30 60 -123 161 -171 186 l-31 16 0 -52 c0 -48 4 -56 46 -101 150
-161 154 -467 8 -645 -31 -37 -172 -133 -196 -133 -5 0 -8 236 -8 525 l0 525
-50 0 -50 0 0 -540 0 -539 -37 -10 c-85 -22 -233 -31 -500 -31 l-283 0 0 521
0 521 328 -5 c180 -3 348 -10 375 -15 l47 -9 0 48 0 47 -42 6 c-24 4 -215 9
-425 12 l-383 6 0 -1191z"/>
</g>
</svg>
